<svg width="40" height="40" viewBox="0 0 40 40" fill="none" xmlns="http://www.w3.org/2000/svg">
<path d="M5 10V22.5" stroke="white" stroke-width="2" stroke-linecap="round" stroke-linejoin="round"/>
<path d="M8.47375 33.7499C9.72293 31.831 11.4314 30.2544 13.4442 29.163C15.4569 28.0716 17.7103 27.5 20 27.5C22.2896 27.5 24.543 28.0716 26.5558 29.163C28.5686 30.2544 30.277 31.831 31.5262 33.7498" stroke="white" stroke-width="2" stroke-linecap="round" stroke-linejoin="round"/>
<path d="M35 10L20 15L5 10L20 5L35 10Z" stroke="white" stroke-width="2" stroke-linecap="round" stroke-linejoin="round"/>
<path d="M26.4589 12.8469C27.6038 14.0997 28.3597 15.6583 28.6345 17.333C28.9093 19.0077 28.6912 20.7262 28.0067 22.2792C27.3222 23.8321 26.2008 25.1525 24.7792 26.0794C23.3576 27.0064 21.6971 27.4999 20 27.4999C18.3029 27.4999 16.6424 27.0064 15.2208 26.0794C13.7992 25.1525 12.6779 23.8321 11.9933 22.2792C11.3088 20.7262 11.0907 19.0077 11.3655 17.333C11.6403 15.6583 12.3962 14.0997 13.5411 12.8469" stroke="white" stroke-width="2" stroke-linecap="round" stroke-linejoin="round"/>
</svg>
